HIERARCHY
ROOT Hips
{
    OFFSET 0.000000 0.000000 0.000000
    CHANNELS 6 Xposition Yposition Zposition Zrotation Xrotation Yrotation
    JOINT Spine
    {
        OFFSET -0.000000 14.517291 0.000000
        CHANNELS 3 Zrotation Xrotation Yrotation
        JOINT Spine1
        {
            OFFSET -0.000000 37.558300 0.000000
            CHANNELS 3 Zrotation Xrotation Yrotation
            JOINT Neck
            {
                OFFSET -0.000000 37.404057 3.400369
                CHANNELS 3 Zrotation Xrotation Yrotation
                JOINT Head
                {
                    OFFSET -0.000000 24.785618 -3.540803
                    CHANNELS 3 Zrotation Xrotation Yrotation
                    End Site
                    {
                        OFFSET -0.000000 35.408028 0.000000
                    }
                }
            }
            JOINT LeftShoulder
            {
                OFFSET 6.992933 33.973492 -0.192664
                CHANNELS 3 Zrotation Xrotation Yrotation
                JOINT LeftArm
                {
                    OFFSET 21.527611 0.000000 0.000000
                    CHANNELS 3 Zrotation Xrotation Yrotation
                    JOINT LeftForeArm
                    {
                        OFFSET 56.353916 0.000000 0.000000
                        CHANNELS 3 Zrotation Xrotation Yrotation
                        JOINT LeftHand
                        {
                            OFFSET 47.774071 0.000000 0.000000
                            CHANNELS 3 Zrotation Xrotation Yrotation
                            End Site
                            {
                                OFFSET 26.556021 0.000000 0.000000
                            }
                        }
                    }
                }
            }
            JOINT RightShoulder
            {
                OFFSET -7.065357 33.973492 -0.192664
                CHANNELS 3 Zrotation Xrotation Yrotation
                JOINT RightArm
                {
                    OFFSET -21.527611 0.000000 0.000000
                    CHANNELS 3 Zrotation Xrotation Yrotation
                    JOINT RightForeArm
                    {
                        OFFSET -56.353916 0.000000 0.000000
                        CHANNELS 3 Zrotation Xrotation Yrotation
                        JOINT RightHand
                        {
                            OFFSET -47.774071 0.000000 0.000000
                            CHANNELS 3 Zrotation Xrotation Yrotation
                            End Site
                            {
                                OFFSET -26.556021 0.000000 0.000000
                            }
                        }
                    }
                }
            }
        }
    }
    JOINT LeftUpLeg
    {
        OFFSET 17.704014 0.000000 0.000000
        CHANNELS 3 Zrotation Xrotation Yrotation
        JOINT LeftLeg
        {
            OFFSET -0.000000 -81.181816 0.000000
            CHANNELS 3 Zrotation Xrotation Yrotation
            JOINT LeftFoot
            {
                OFFSET -0.000000 -62.821102 0.000000
                CHANNELS 3 Zrotation Xrotation Yrotation
                JOINT LeftToeBase
                {
                    OFFSET -0.000000 -11.507608 26.556021
                    CHANNELS 3 Zrotation Xrotation Yrotation
                    End Site
                    {
                        OFFSET -0.000000 0.000000 7.081605
                    }
                }
            }
        }
    }
    JOINT RightUpLeg
    {
        OFFSET -17.704014 0.000000 0.000000
        CHANNELS 3 Zrotation Xrotation Yrotation
        JOINT RightLeg
        {
            OFFSET -0.000000 -81.181816 0.000000
            CHANNELS 3 Zrotation Xrotation Yrotation
            JOINT RightFoot
            {
                OFFSET -0.000000 -62.821102 0.000000
                CHANNELS 3 Zrotation Xrotation Yrotation
                JOINT RightToeBase
                {
                    OFFSET -0.000000 -11.507608 26.556021
                    CHANNELS 3 Zrotation Xrotation Yrotation
                    End Site
                    {
                        OFFSET -0.000000 0.000000 7.081605
                    }
                }
            }
        }
    }
}
MOTION
Frames:    12
Frame Time:    0.008333
21.750376    146.351547    47.098988    3.068001    2.588778    -56.059769    1.742962    -1.361348    2.744261    0.053831    -2.135062    0.907173    22.544142    2.110386    18.400633    -15.733747    10.638787    15.476067    12.767952    1.346376    -15.368666    -6.331340    -7.622797    -21.738110    -4.342312    -0.236653    -86.749413    -1.932888    -3.924850    -24.213892    -13.859823    -4.181354    -5.038876    31.820604    -29.231092    54.575642    21.135977    -39.881638    100.806801    52.085918    -34.581665    59.615570    36.033127    -23.825087    25.936331    -28.272142    40.797680    3.508792    -1.675958    -12.142497    43.591244    0.000000    0.000000    0.000000    -28.947359    -7.913606    -19.579861    4.076127    33.926067    -7.088649    19.722775    -13.732924    6.745504    0.000000    0.000000    0.000000    
21.748346    146.363464    47.095818    3.063287    2.587129    -56.038803    1.741966    -1.370151    2.719462    0.075640    -2.129241    0.899254    22.517986    2.124366    18.394110    -15.728962    10.627550    15.474286    12.748293    1.377326    -15.356910    -6.320308    -7.616052    -21.358704    -4.437959    -0.025006    -86.777039    -1.737738    -3.841991    -24.583931    -13.648678    -3.991540    -5.086533    31.974703    -29.006731    54.432617    21.056496    -39.902908    101.110291    52.061520    -34.674603    59.580650    36.021767    -23.823292    25.923824    -28.314817    40.848515    3.519752    -1.624883    -12.209317    43.587269    0.000000    0.000000    0.000000    -28.934494    -7.883928    -19.594141    4.064361    33.889008    -7.096650    19.729532    -13.715932    6.741805    0.000000    0.000000    0.000000    
21.747564    146.374649    47.095135    3.066006    2.590659    -56.020103    1.737765    -1.388557    2.694118    0.106324    -2.128160    0.891259    22.479778    2.124027    18.394661    -15.692315    10.642572    15.483800    12.723920    1.403532    -15.340674    -6.351470    -7.555676    -21.773354    -4.281156    -0.327986    -86.757454    -1.963373    -3.951810    -24.225395    -13.396332    -3.766562    -5.125968    32.123795    -28.851036    54.356247    21.003056    -39.889526    101.368927    52.005081    -34.744087    59.575264    36.013660    -23.827324    25.925989    -28.300398    40.826462    3.514740    -1.625236    -12.194078    43.576984    0.000000    0.000000    0.000000    -28.926670    -7.862964    -19.619368    4.049809    33.860226    -7.054636    19.718363    -13.715714    6.724565    0.000000    0.000000    0.000000    
21.744717    146.387634    47.085804    3.062758    2.600076    -56.006706    1.723516    -1.404956    2.671692    0.161004    -2.122988    0.884783    22.436068    2.129386    18.393776    -15.664562    10.640385    15.490878    12.693613    1.418555    -15.327513    -6.338040    -7.551179    -21.390097    -4.398433    -0.086927    -86.790848    -1.740038    -3.867118    -24.559975    -13.165649    -3.595982    -5.159224    32.289486    -28.696007    54.249153    20.859041    -39.854752    101.560783    51.824608    -34.725250    59.599831    36.015419    -23.828476    25.941044    -28.267021    40.813427    3.472114    -1.639360    -12.182015    43.585777    0.000000    0.000000    0.000000    -28.904196    -7.851316    -19.643963    4.027979    33.836765    -7.038745    19.725380    -13.696733    6.716250    0.000000    0.000000    0.000000    
21.743191    146.396179    47.081165    3.063920    2.604007    -55.989918    1.722441    -1.418363    2.644064    0.182881    -2.127518    0.875863    22.397104    2.124625    18.379530    -15.633218    10.660664    15.484494    12.670560    1.434193    -15.312085    -6.359243    -7.522249    -21.797207    -4.282189    -0.340069    -86.774223    -1.963573    -3.966405    -24.186989    -12.936533    -3.425554    -5.179317    32.426647    -28.509520    54.111519    20.789988    -39.818916    101.766037    51.809704    -34.776451    59.470669    36.012791    -23.833549    25.956173    -28.240707    40.808037    3.435176    -1.657280    -12.170597    43.572857    0.000000    0.000000    0.000000    -28.894325    -7.839180    -19.668837    4.008956    33.824123    -7.025026    19.730103    -13.697346    6.726877    0.000000    0.000000    0.000000    
21.739656    146.403641    47.074364    3.061815    2.605844    -55.981003    1.714613    -1.431478    2.625537    0.215957    -2.122141    0.870248    22.368746    2.125998    18.367924    -15.634003    10.667224    15.477323    12.649291    1.442143    -15.309122    -6.342677    -7.530664    -21.396778    -4.436786    -0.078094    -86.795944    -1.745050    -3.892687    -24.596487    -12.706860    -3.251162    -5.207796    32.632118    -28.413874    54.026901    20.726851    -39.690544    101.934135    51.719048    -34.794598    59.293842    36.009926    -23.828686    25.964996    -28.220324    40.792595    3.393764    -1.656978    -12.163315    43.583569    0.000000    0.000000    0.000000    -28.885210    -7.834530    -19.676422    4.008952    33.820675    -7.020291    19.721748    -13.695704    6.703922    0.000000    0.000000    0.000000    
21.738171    146.407898    47.064697    3.063561    2.602481    -55.973846    1.699976    -1.440879    2.602396    0.249471    -2.119946    0.863149    22.337345    2.139718    18.359970    -15.642890    10.654457    15.473845    12.628298    1.452400    -15.280556    -6.367733    -7.482996    -21.804657    -4.303020    -0.358371    -86.779427    -1.971860    -4.001838    -24.230547    -12.470133    -3.049300    -5.232275    32.780407    -28.303434    53.932636    20.639717    -39.621700    102.080307    51.641891    -34.761757    59.240437    36.003914    -23.829689    25.981264    -28.138924    40.720982    3.347472    -1.726010    -12.072315    43.565582    0.000000    0.000000    0.000000    -28.881563    -7.836203    -19.679188    3.996576    33.825909    -7.013564    19.720551    -13.694835    6.697944    0.000000    0.000000    0.000000    
21.733456    146.407455    47.055405    3.058687    2.593504    -55.965519    1.685732    -1.445125    2.583216    0.280734    -2.115176    0.857372    22.317698    2.151473    18.350523    -15.677979    10.652423    15.467099    12.608729    1.457206    -15.271630    -6.344506    -7.467252    -21.408314    -4.438261    -0.121418    -86.800018    -1.748418    -3.936827    -24.599062    -12.251024    -2.860086    -5.259918    32.962975    -28.214066    53.840076    20.581089    -39.489536    102.221016    51.563328    -34.730110    59.118553    35.996304    -23.823036    25.995434    -28.115513    40.723297    3.328946    -1.733759    -12.063066    43.541225    0.000000    0.000000    0.000000    -28.880764    -7.831380    -19.669857    3.995210    33.841312    -7.007992    19.711849    -13.719346    6.687376    0.000000    0.000000    0.000000    
21.727171    146.406601    47.042252    3.053818    2.580956    -55.959644    1.661635    -1.437832    2.570059    0.314379    -2.120494    0.853730    22.300098    2.147317    18.336510    -15.709314    10.656926    15.453125    12.598770    1.470916    -15.253755    -6.370497    -7.410964    -21.813847    -4.288275    -0.416893    -86.780998    -1.961138    -4.048043    -24.270702    -12.023758    -2.646998    -5.317893    33.121914    -28.093506    53.781658    20.571432    -39.418133    102.378166    51.608646    -34.679905    59.115070    35.988914    -23.811531    25.988438    -28.107914    40.716171    3.301659    -1.736591    -12.053320    43.539021    0.000000    0.000000    0.000000    -28.883011    -7.824928    -19.657143    3.995543    33.854980    -7.009283    19.708166    -13.741526    6.685187    0.000000    0.000000    0.000000    
21.722054    146.401459    47.031410    3.047704    2.563974    -55.950188    1.635787    -1.433239    2.549967    0.345780    -2.113478    0.847664    22.272316    2.197228    18.257751    -15.765420    10.597668    15.373348    12.595872    1.474811    -15.227522    -6.365029    -7.389747    -21.431467    -4.386936    -0.200199    -86.809128    -1.760072    -3.964762    -24.626560    -11.819342    -2.456981    -5.365539    33.304241    -27.983532    53.699814    20.552082    -39.269630    102.519402    51.515884    -34.644562    59.062290    35.971844    -23.803371    25.974703    -28.092047    40.711040    3.277516    -1.744577    -12.056453    43.546429    0.000000    0.000000    0.000000    -28.894188    -7.815080    -19.640530    4.013590    33.878811    -7.023578    19.701139    -13.773977    6.681386    0.000000    0.000000    0.000000    
21.707769    146.396606    47.017731    3.035369    2.549646    -55.937717    1.608793    -1.423659    2.538096    0.383909    -2.120774    0.844648    22.222427    2.213425    18.258619    -15.756127    10.548774    15.377827    12.584049    1.486038    -15.229014    -6.386869    -7.355221    -21.827328    -4.264762    -0.455804    -86.780327    -1.963342    -4.063749    -24.297373    -11.604561    -2.266359    -5.432892    33.413712    -27.804218    53.595070    20.620371    -39.193920    102.729660    51.594822    -34.667110    59.078190    35.970032    -23.789593    25.951986    -28.113583    40.697617    3.300567    -1.741076    -12.045896    43.546711    0.000000    0.000000    0.000000    -28.893930    -7.788974    -19.633018    4.015137    33.881786    -7.017832    19.708300    -13.802488    6.689781    0.000000    0.000000    0.000000    
21.698448    146.389694    47.005348    3.019750    2.531814    -55.930534    1.598364    -1.405433    2.528038    0.399699    -2.124600    0.841717    22.210953    2.229186    18.253664    -15.808508    10.513010    15.369857    12.570540    1.498948    -15.216969    -6.366517    -7.288916    -21.439789    -4.334318    -0.320364    -86.810547    -1.813736    -4.022892    -24.649862    -11.392387    -2.086973    -5.491420    33.549675    -27.666454    53.492565    20.742405    -39.026360    102.962944    51.668659    -34.728836    58.985226    35.961689    -23.771437    25.924540    -28.117514    40.690426    3.299349    -1.741841    -12.042016    43.546989    0.000000    0.000000    0.000000    -28.895672    -7.768872    -19.634188    4.006754    33.896790    -7.026980    19.709745    -13.830051    6.721110    0.000000    0.000000    0.000000    
